<svg xmlns="http://www.w3.org/2000/svg" viewBox="0 0 640 360">
  <defs>
    <linearGradient id="bg" x1="0" y1="0" x2="1" y2="1">
      <stop offset="0%" stop-color="#312e81" />
      <stop offset="100%" stop-color="#5b61ff" />
    </linearGradient>
    <linearGradient id="card" x1="0" y1="0" x2="1" y2="1">
      <stop offset="0%" stop-color="#f8fafc" />
      <stop offset="100%" stop-color="#e0e7ff" />
    </linearGradient>
    <linearGradient id="accent" x1="0" y1="0" x2="0" y2="1">
      <stop offset="0%" stop-color="#38bdf8" />
      <stop offset="100%" stop-color="#5b61ff" />
    </linearGradient>
    <filter id="blur" x="-10" y="-10" width="660" height="380" filterUnits="userSpaceOnUse">
      <feGaussianBlur stdDeviation="18" />
    </filter>
  </defs>
  <rect width="640" height="360" fill="url(#bg)" rx="28" />
  <g opacity="0.35" fill="none" stroke="#94a3b8" stroke-width="0.6">
    <path d="M80 70h480M80 130h480M80 190h480M80 250h480M80 310h480" opacity="0.6" />
    <path d="M160 40v280M240 40v280M320 40v280M400 40v280M480 40v280" opacity="0.3" />
  </g>
  <g transform="translate(100 80)" opacity="0.9">
    <rect x="0" y="0" width="440" height="220" rx="26" fill="url(#card)" />
    <rect x="28" y="36" width="180" height="120" rx="20" fill="#1e293b" opacity="0.9" />
    <rect x="228" y="36" width="180" height="36" rx="12" fill="#c7d2fe" />
    <rect x="228" y="88" width="108" height="18" rx="9" fill="#a5b4fc" />
    <rect x="228" y="116" width="148" height="18" rx="9" fill="#dbeafe" />
    <rect x="228" y="144" width="120" height="18" rx="9" fill="#cbd5f5" />
    <rect x="228" y="180" width="64" height="12" rx="6" fill="#94a3b8" />
    <rect x="308" y="180" width="64" height="12" rx="6" fill="#94a3b8" opacity="0.6" />
  </g>
  <circle cx="526" cy="70" r="44" fill="url(#accent)" filter="url(#blur)" opacity="0.7" />
  <circle cx="140" cy="300" r="34" fill="#38bdf8" opacity="0.4" />
  <circle cx="540" cy="296" r="24" fill="#f1f5f9" opacity="0.35" />
</svg>
