<svg xmlns="http://www.w3.org/2000/svg" viewBox="0 0 640 360">
  <defs>
    <linearGradient id="bg" x1="0" y1="0" x2="1" y2="1">
      <stop offset="0%" stop-color="#020617" />
      <stop offset="100%" stop-color="#1e293b" />
    </linearGradient>
    <linearGradient id="pulse" x1="0" y1="0" x2="1" y2="0">
      <stop offset="0%" stop-color="#5b61ff" />
      <stop offset="50%" stop-color="#22d3ee" />
      <stop offset="100%" stop-color="#a855f7" />
    </linearGradient>
    <linearGradient id="card" x1="0" y1="0" x2="1" y2="1">
      <stop offset="0%" stop-color="#f8fafc" />
      <stop offset="100%" stop-color="#e0e7ff" />
    </linearGradient>
  </defs>
  <rect width="640" height="360" fill="url(#bg)" rx="28" />
  <g opacity="0.18" stroke="#475569" stroke-width="1" fill="none">
    <path d="M80 76h480M80 124h480M80 172h480M80 220h480M80 268h480M80 316h480" />
    <path d="M152 40v280M224 40v280M296 40v280M368 40v280M440 40v280M512 40v280" />
  </g>
  <g transform="translate(110 86)">
    <rect width="420" height="200" rx="24" fill="url(#card)" opacity="0.92" />
    <rect x="32" y="38" width="356" height="20" rx="10" fill="#1f2937" opacity="0.85" />
    <rect x="32" y="74" width="180" height="20" rx="10" fill="#4338ca" opacity="0.8" />
    <rect x="226" y="74" width="132" height="20" rx="10" fill="#6366f1" opacity="0.5" />
    <rect x="32" y="114" width="132" height="16" rx="8" fill="#cbd5f5" />
    <rect x="180" y="114" width="110" height="16" rx="8" fill="#cbd5f5" opacity="0.7" />
    <rect x="304" y="114" width="84" height="16" rx="8" fill="#cbd5f5" opacity="0.45" />
    <rect x="32" y="148" width="260" height="14" rx="7" fill="#94a3b8" opacity="0.6" />
    <rect x="32" y="174" width="180" height="14" rx="7" fill="#e2e8f0" opacity="0.9" />
    <rect x="226" y="174" width="132" height="14" rx="7" fill="#cbd5f5" opacity="0.7" />
  </g>
  <path d="M96 314c48-86 112-132 176-116s112 108 176 92 128-128 160-160" stroke="url(#pulse)" stroke-width="6" fill="none" stroke-linecap="round" opacity="0.7" />
  <circle cx="520" cy="76" r="34" fill="#38bdf8" opacity="0.4" />
  <circle cx="140" cy="82" r="24" fill="#818cf8" opacity="0.45" />
  <circle cx="548" cy="294" r="20" fill="#f1f5f9" opacity="0.32" />
</svg>
