<svg xmlns="http://www.w3.org/2000/svg" viewBox="0 0 640 360">
  <defs>
    <linearGradient id="bg" x1="0" y1="0" x2="1" y2="1">
      <stop offset="0%" stop-color="#0f172a" />
      <stop offset="100%" stop-color="#1e1b4b" />
    </linearGradient>
    <linearGradient id="card" x1="0" y1="0" x2="1" y2="1">
      <stop offset="0%" stop-color="#f1f5f9" />
      <stop offset="100%" stop-color="#e0f2fe" />
    </linearGradient>
    <linearGradient id="accent" x1="0" y1="1" x2="1" y2="0">
      <stop offset="0%" stop-color="#f97316" />
      <stop offset="40%" stop-color="#fb7185" />
      <stop offset="100%" stop-color="#5b61ff" />
    </linearGradient>
  </defs>
  <rect width="640" height="360" fill="url(#bg)" rx="28" />
  <g opacity="0.25" stroke="#334155" stroke-width="1">
    <path d="M90 70h460M90 118h460M90 166h460M90 214h460M90 262h460M90 310h460" />
  </g>
  <g transform="translate(110 70)">
    <rect width="420" height="220" rx="24" fill="url(#card)" opacity="0.95" />
    <rect x="32" y="40" width="180" height="56" rx="16" fill="#1e40af" opacity="0.8" />
    <text x="52" y="76" font-family="'Inter', sans-serif" font-size="18" fill="#f8fafc" opacity="0.85">Mood score</text>
    <path d="M32 146c28-24 44-56 72-56s44 48 72 56 44-34 72-34 44 42 72 42" fill="none" stroke="url(#accent)" stroke-width="8" stroke-linecap="round" />
    <rect x="260" y="40" width="128" height="16" rx="8" fill="#cbd5f5" />
    <rect x="260" y="68" width="160" height="16" rx="8" fill="#a5b4fc" opacity="0.9" />
    <rect x="260" y="104" width="120" height="14" rx="7" fill="#94a3b8" opacity="0.8" />
    <rect x="260" y="132" width="160" height="14" rx="7" fill="#e2e8f0" opacity="0.8" />
    <rect x="60" y="188" width="320" height="12" rx="6" fill="#94a3b8" opacity="0.4" />
  </g>
  <circle cx="520" cy="90" r="36" fill="#60a5fa" opacity="0.45" />
  <circle cx="150" cy="300" r="28" fill="#818cf8" opacity="0.35" />
  <circle cx="560" cy="290" r="18" fill="#f8fafc" opacity="0.3" />
</svg>
