<svg width="192" height="192" viewBox="0 0 192 192" xmlns="http://www.w3.org/2000/svg" role="img" aria-labelledby="title desc">
  <title id="title">Denys Zagorovskyi portfolio icon</title>
  <desc id="desc">Rounded badge with stylised DZ initials on a blue to violet gradient</desc>
  <defs>
    <linearGradient id="grad192" x1="24" y1="24" x2="168" y2="168" gradientUnits="userSpaceOnUse">
      <stop offset="0" stop-color="#6366F1" />
      <stop offset="1" stop-color="#0EA5E9" />
    </linearGradient>
    <linearGradient id="stroke192" x1="48" y1="48" x2="144" y2="144" gradientUnits="userSpaceOnUse">
      <stop offset="0" stop-color="#F8FAFC" stop-opacity="0.9" />
      <stop offset="1" stop-color="#E2E8F0" stop-opacity="0.75" />
    </linearGradient>
  </defs>
  <rect width="192" height="192" rx="44" fill="url(#grad192)" />
  <path d="M60 58h34c18.5 0 32 12.4 32 32 0 19.4-13.3 32-34 32H78v24H60V58Zm18 56h16c9.4 0 16-5.9 16-16 0-9.9-6.6-16-16-16H78v32Z" fill="url(#stroke192)" />
  <path d="M138 134h-53v-18h38.7L96 86.4l12.2-12.2L150 116v18h-12Z" fill="url(#stroke192)" />
</svg>
